<svg width="812" height="153" viewBox="0 0 812 153" fill="none" xmlns="http://www.w3.org/2000/svg">
<path d="M105.557 20.5387C105.557 11.4046 97.2537 8.08309 83.9677 8.08309H54.2819C24.181 8.08309 4.45966 25.5209 1.34576 51.8852C-2.18331 83.4393 15.2545 106.067 44.3175 96.5176C66.7375 89.0443 63.6236 48.1485 42.6567 59.3585C32.8999 64.5483 14.6317 62.2648 12.5558 51.8852C8.19633 28.4272 68.8134 14.7261 68.8134 68.7002V71.6065C68.8134 85.7228 62.3781 91.1202 62.3781 102.538C62.3781 111.672 70.8894 114.786 83.9677 114.786C97.2537 114.786 105.557 111.672 105.557 102.538C105.557 91.1202 99.3296 85.7228 99.3296 71.6065V51.47C99.3296 37.3537 105.557 31.9563 105.557 20.5387Z" fill="#F5EDC6"/>
<path d="M228.099 120.183C213.152 120.183 210.453 144.887 201.112 140.527C183.882 132.846 226.438 45.4498 174.125 45.4498C164.368 45.4498 155.649 48.9789 148.798 55.2067V54.5839C148.798 34.655 106.657 51.6776 106.657 63.9256C106.657 71.8141 114.545 74.0976 114.545 83.0241C114.545 95.2721 108.11 94.4417 108.11 102.538C108.11 111.672 115.168 114.786 128.454 114.786C141.74 114.786 148.798 111.672 148.798 102.538C148.798 100.254 148.383 98.5936 147.76 96.9328L146.93 95.2721C141.325 80.1178 157.517 55.8294 167.274 55.8294C185.335 55.8294 144.854 148.831 202.565 152.153C248.235 154.644 248.65 120.183 228.099 120.183Z" fill="#F5EDC6"/>
<path d="M304.537 8.08309C284.193 8.08309 269.246 32.1639 252.431 43.1663C254.299 38.3916 256.79 35.4853 256.79 30.2955C256.79 25.3133 253.261 21.1614 245.788 21.1614C230.219 21.1614 228.765 45.0346 220.877 45.0346C219.631 44.2042 218.593 43.1663 217.555 41.9207C211.95 35.2778 201.571 43.7891 205.1 51.0548C207.798 56.2446 213.611 60.1889 220.877 62.2648V93.1962C220.877 108.143 234.163 114.786 245.165 114.786C254.092 114.786 266.132 112.295 271.53 102.953C276.512 94.8569 268 92.3658 263.641 94.4417C252.223 99.8391 250.355 94.6493 250.355 87.5912V60.1889C264.264 54.1687 277.342 42.3359 294.78 42.3359C319.068 42.3359 325.296 8.08309 304.537 8.08309Z" fill="#F5EDC6"/>
<path d="M366.299 45.4498C361.317 45.4498 356.542 46.0726 351.975 47.5257C349.069 46.2802 345.54 45.4498 341.18 45.4498C329.14 45.4498 320.836 48.5637 315.646 53.1307C313.57 35.4853 273.712 51.8852 273.712 63.9256C273.712 71.8141 281.601 74.0976 281.601 83.0241C281.601 95.2721 275.166 94.4417 275.166 102.538C275.166 111.672 282.224 114.786 295.51 114.786C308.796 114.786 315.854 111.672 315.854 102.538C315.854 93.6113 309.418 92.5734 309.418 78.6647C309.418 64.5483 330.593 53.1307 333.707 55.6219C334.33 56.037 334.122 57.2826 333.499 58.9433C328.102 64.7559 324.988 72.2293 324.988 80.1178C324.988 99.424 343.464 114.786 366.299 114.786C389.134 114.786 407.61 99.424 407.61 80.1178C407.61 61.0193 389.134 45.4498 366.299 45.4498ZM366.299 104.406C361.524 104.406 357.788 93.6114 357.788 80.1178C357.788 66.8319 361.524 55.8294 366.299 55.8294C370.866 55.8294 374.603 66.8319 374.603 80.1178C374.603 93.6114 370.866 104.406 366.299 104.406Z" fill="#F5EDC6"/>
<path d="M525.922 36.9385C547.304 41.9207 557.683 0.609741 528.828 0.609741C493.537 0.609741 463.021 85.3076 463.021 85.3076C457.416 73.2672 458.869 65.7939 454.302 57.6978C449.943 49.8092 443.092 45.4498 429.806 45.4498C416.728 45.4498 404.895 50.8472 409.67 59.9813C415.897 71.6065 423.993 74.5128 431.467 88.6291L441.639 107.935C445.791 116.654 457.623 118.107 462.606 107.935C480.666 70.9837 501.01 31.1259 525.922 36.9385Z" fill="#F5EDC6"/>
<path d="M534.788 114.786C550.98 114.786 565.097 107.105 571.74 95.6873C575.891 88.4215 564.059 86.3456 561.36 90.9126C558.454 96.1025 549.735 96.9328 541.431 93.8189C546.413 83.4393 572.985 86.9684 572.985 71.1913C572.985 58.9433 555.963 45.4498 534.788 45.4498C511.953 45.4498 493.477 61.0193 493.477 80.1178C493.477 99.424 511.953 114.786 534.788 114.786ZM542.677 59.9813C542.677 66.6243 534.165 79.0798 533.127 88.8367C527.937 84.6849 524.201 78.2495 524.201 69.9458C524.201 52.9231 542.677 52.3004 542.677 59.9813Z" fill="#F5EDC6"/>
<path d="M575.316 102.538C575.316 111.672 582.374 114.786 595.66 114.786C608.946 114.786 616.004 111.672 616.004 102.538C616.004 93.6113 609.568 92.5734 609.568 78.6647C609.568 74.5128 610.814 66.8319 614.966 66.8319C621.401 66.8319 629.913 79.495 639.047 79.495C646.312 79.495 653.578 73.4748 655.654 62.8876C657.315 54.3763 652.748 45.4498 644.237 45.4498C631.989 45.4498 624.723 54.7915 615.796 56.2446C615.796 55.8294 616.004 55.2067 616.004 54.5839C616.004 34.655 573.862 51.6776 573.862 63.9256C573.862 71.8141 581.751 74.0976 581.751 83.0241C581.751 95.2721 575.316 94.4417 575.316 102.538Z" fill="#F5EDC6"/>
<path d="M662.098 80.1178C674.138 89.8747 699.049 94.8569 699.049 100.67C699.049 105.652 691.368 106.69 680.988 97.1404C674.138 90.4975 653.586 90.9127 656.493 100.462C659.399 109.804 678.705 114.786 693.652 114.786C723.753 114.786 740.568 93.6114 724.998 80.1178C713.581 70.3609 687.839 65.5863 688.047 59.5661C688.047 54.5839 695.728 53.5459 705.9 63.3028C712.958 69.7382 733.51 69.323 730.396 59.7737C727.697 50.432 708.183 45.4498 693.237 45.4498C663.343 45.4498 645.905 67.2471 662.098 80.1178Z" fill="#F5EDC6"/>
<path d="M772.904 114.786C789.096 114.786 803.212 107.105 809.855 95.6873C814.007 88.4215 802.174 86.3456 799.475 90.9126C796.569 96.1025 787.85 96.9328 779.546 93.8189C784.529 83.4393 811.101 86.9684 811.101 71.1913C811.101 58.9433 794.078 45.4498 772.904 45.4498C750.068 45.4498 731.592 61.0193 731.592 80.1178C731.592 99.424 750.068 114.786 772.904 114.786ZM780.792 59.9813C780.792 66.6243 772.281 79.0798 771.243 88.8367C766.053 84.6849 762.316 78.2495 762.316 69.9458C762.316 52.9231 780.792 52.3004 780.792 59.9813Z" fill="#F5EDC6"/>
</svg>
